<?xml version="1.0" encoding="UTF-8"?>
<svg id="Layer_1" xmlns="http://www.w3.org/2000/svg" version="1.1" viewBox="0 0 1584 396">
  <!-- Generator: Adobe Illustrator 29.4.0, SVG Export Plug-In . SVG Version: 2.1.0 Build 152)  -->
  <defs>
    <style>
      .st0 {
        fill: #231f20;
      }
    </style>
  </defs>
  <path class="st0" d="M88.79,239.18l-37.73-38.67v38.67h-5.26v-82h5.26v39.02l37.73-39.02h6.77l-39.95,41.12,40.07,40.89h-6.89Z"/>
  <path class="st0" d="M148.13,161.61v34.23h32.71v4.44h-32.71v34.46h36.21v4.44h-41.47v-82h41.47v4.44h-36.21Z"/>
  <path class="st0" d="M240.53,161.61v34.23h32.71v4.44h-32.71v34.46h36.21v4.44h-41.47v-82h41.47v4.44h-36.21Z"/>
  <path class="st0" d="M370.54,197.18c-4.52,4.01-11.21,6.02-20.09,6.02h-17.52v35.98h-5.26v-82h22.78c9.03,0,15.77,2.08,20.21,6.25,4.44,4.17,6.66,9.79,6.66,16.88s-2.26,12.87-6.78,16.88ZM372.06,180.3c0-5.99-1.71-10.57-5.14-13.73-3.42-3.15-8.92-4.73-16.47-4.73h-17.52v36.68h17.52c14.4,0,21.61-6.07,21.61-18.22Z"/>
  <path class="st0" d="M503.01,158.93v80.25h-5.26v-69.27l-30.84,69.27h-4.21l-30.96-69.27v69.27h-5.26v-80.25h5.61l32.71,73.36,32.71-73.36h5.49Z"/>
  <path class="st0" d="M562.58,161.61v34.23h32.71v4.44h-32.71v34.46h36.21v4.44h-41.47v-82h41.47v4.44h-36.21Z"/>
  <path class="st0" d="M735.34,223.76h26.17v15.42h-46.14v-82h19.97v66.58Z"/>
  <path class="st0" d="M826.11,157.17v82h-19.97v-82h19.97Z"/>
  <path class="st0" d="M929.02,157.17v16h-33.41v17.29h25v15.54h-25v33.17h-19.97v-82h53.38Z"/>
  <path class="st0" d="M994.56,173.18v16.59h26.75v15.42h-26.75v17.99h30.26v16h-50.23v-82h50.23v16h-30.26Z"/>
  <path class="st0" d="M1086.37,237.07c-4.75-1.95-8.55-4.83-11.39-8.64-2.84-3.82-4.34-8.41-4.5-13.78h21.26c.31,3.04,1.36,5.35,3.16,6.95,1.79,1.6,4.13,2.39,7.01,2.39s5.3-.68,7.01-2.04c1.71-1.36,2.57-3.25,2.57-5.66,0-2.02-.68-3.7-2.04-5.02-1.36-1.32-3.04-2.41-5.02-3.27-1.99-.86-4.81-1.83-8.47-2.92-5.3-1.64-9.62-3.27-12.97-4.91-3.35-1.63-6.23-4.05-8.64-7.24-2.41-3.19-3.62-7.36-3.62-12.5,0-7.63,2.76-13.61,8.29-17.93,5.53-4.32,12.73-6.48,21.61-6.48s16.31,2.16,21.84,6.48c5.53,4.32,8.49,10.34,8.88,18.05h-21.61c-.16-2.65-1.13-4.73-2.92-6.25-1.79-1.52-4.09-2.28-6.89-2.28-2.41,0-4.36.64-5.84,1.93-1.48,1.29-2.22,3.14-2.22,5.55,0,2.65,1.24,4.71,3.74,6.19,2.49,1.48,6.38,3.08,11.68,4.79,5.3,1.79,9.6,3.51,12.91,5.14,3.31,1.64,6.17,4.01,8.59,7.13,2.41,3.12,3.62,7.13,3.62,12.03s-1.19,8.92-3.56,12.73-5.82,6.85-10.34,9.11c-4.52,2.26-9.85,3.39-16,3.39s-11.37-.97-16.12-2.92Z"/>
  <path class="st0" d="M1238.69,157.17v16h-21.73v66h-19.97v-66h-21.73v-16h63.43Z"/>
  <path class="st0" d="M1354.1,157.17l-28.39,54.9v27.1h-19.97v-27.1l-28.39-54.9h22.66l15.89,34.34,15.77-34.34h22.43Z"/>
  <path class="st0" d="M1417.18,223.76h26.17v15.42h-46.14v-82h19.97v66.58Z"/>
  <path class="st0" d="M1507.94,173.18v16.59h26.75v15.42h-26.75v17.99h30.26v16h-50.23v-82h50.23v16h-30.26Z"/>
</svg>