<?xml version="1.0" encoding="UTF-8"?>
<svg version="1.1" xmlns="http://www.w3.org/2000/svg" width="3110" height="175">
<path d="M0 0 C1.31863037 0.00829834 2.63726074 0.01659668 3.99584961 0.02514648 C22.4748713 0.34549969 38.3429564 4.92508945 52.03515625 18.0625 C61.10791754 28.0738228 64.1875 39.14623041 64.1875 52.4375 C49.0075 52.4375 33.8275 52.4375 18.1875 52.4375 C17.1975 48.4775 17.1975 48.4775 16.1875 44.4375 C13.05980023 39.70126893 9.76719994 36.70181403 4.1875 35.4375 C-1.02588822 34.81466158 -6.01158732 34.64022936 -10.8125 37 C-14.48025419 39.98005028 -15.61406374 41.86846177 -16.8125 46.4375 C-17.07706735 51.25758645 -16.82008598 54.26406359 -13.60546875 58.0078125 C-5.27878217 65.25144754 5.71822304 68.41598662 16 71.875 C45.21680627 81.74252746 45.21680627 81.74252746 56.1875 93.4375 C56.77917969 94.01113281 57.37085937 94.58476563 57.98046875 95.17578125 C63.96249564 101.36459426 66.56089147 109.97828488 67.1875 118.4375 C67.2390625 119.07558594 67.290625 119.71367188 67.34375 120.37109375 C67.96789445 134.54437389 63.01483023 146.97936535 54 157.6875 C44.05576033 168.12812435 29.70022957 174.75272447 15.21166992 175.61450195 C-7.53908096 176.03777958 -28.93522077 175.09145301 -47.375 160.0625 C-55.26034312 152.38604014 -61.23107888 142.42992723 -62.8125 131.4375 C-62.8125 128.4675 -62.8125 125.4975 -62.8125 122.4375 C-47.9625 122.4375 -33.1125 122.4375 -17.8125 122.4375 C-16.4925 126.0675 -15.1725 129.6975 -13.8125 133.4375 C-9.76829305 137.65380086 -5.80913924 140.08203659 0.01953125 140.7734375 C6.5859972 140.85949865 11.86364671 140.55836721 17.1875 136.4375 C20.28550238 133.02969738 21.10630223 131.0769324 21.6875 126.5 C21.40546378 122.14502889 20.12040003 118.68964704 17.1875 115.4375 C8.23580165 108.32739197 -3.45193545 105.6256712 -14.14575195 102.19018555 C-31.54267191 96.56870298 -49.35874644 90.13328204 -58.62890625 73.08984375 C-64.50805274 59.91512274 -64.4786932 45.00080037 -59.8125 31.4375 C-58.09614139 27.87161702 -56.10493686 24.65866769 -53.8125 21.4375 C-53.07 20.385625 -52.3275 19.33375 -51.5625 18.25 C-37.66748986 4.03919417 -19.25974829 -0.15656327 0 0 Z " fill="#FFFFFF" transform="translate(2197.8125,-0.4375)"/>
<path d="M0 0 C34.98 0 69.96 0 106 0 C106 11.22 106 22.44 106 34 C85.21 34 64.42 34 43 34 C43 45.22 43 56.44 43 68 C61.48 68 79.96 68 99 68 C99 78.89 99 89.78 99 101 C80.52 101 62.04 101 43 101 C43 112.88 43 124.76 43 137 C63.79 137 84.58 137 106 137 C106 148.55 106 160.1 106 172 C71.02 172 36.04 172 0 172 C0 115.24 0 58.48 0 0 Z " fill="#FFFFFF" transform="translate(3004,2)"/>
<path d="M0 0 C34.98 0 69.96 0 106 0 C106 11.22 106 22.44 106 34 C84.88 34 63.76 34 42 34 C42 45.22 42 56.44 42 68 C60.48 68 78.96 68 98 68 C98 78.89 98 89.78 98 101 C79.52 101 61.04 101 42 101 C42 112.88 42 124.76 42 137 C63.12 137 84.24 137 106 137 C106 148.55 106 160.1 106 172 C71.02 172 36.04 172 0 172 C0 115.24 0 58.48 0 0 Z " fill="#FFFFFF" transform="translate(1935,2)"/>
<path d="M0 0 C15.84 0 31.68 0 48 0 C53.01645121 10.03290242 57.91317765 20.00934148 62.50216675 30.22976685 C64.10886863 33.80745562 65.7262332 37.3803156 67.34375 40.953125 C67.6587999 41.64938492 67.97384979 42.34564484 68.29844666 43.06300354 C72.08979438 51.42710853 76.01883449 59.72478605 80 68 C82.93307827 64.48928776 84.72527895 60.56655146 86.58984375 56.4296875 C86.9308461 55.68355194 87.27184845 54.93741638 87.6231842 54.16867065 C88.73231436 51.73940761 89.83482654 49.30719963 90.9375 46.875 C91.69933054 45.20450657 92.46170355 43.53426044 93.22460938 41.86425781 C94.7571305 38.50843262 96.28751498 35.15164807 97.81591797 31.79394531 C100.86156412 25.10538233 103.92702941 18.42604416 107 11.75 C107.49749756 10.66315918 107.99499512 9.57631836 108.50756836 8.45654297 C108.9588208 7.47572754 109.41007324 6.49491211 109.875 5.484375 C110.26429688 4.63584961 110.65359375 3.78732422 111.0546875 2.91308594 C112 1 112 1 113 0 C114.50418739 -0.09311889 116.01271356 -0.11746028 117.51977539 -0.11352539 C118.96115623 -0.11341209 118.96115623 -0.11341209 120.43165588 -0.11329651 C121.99882607 -0.10555458 121.99882607 -0.10555458 123.59765625 -0.09765625 C124.66165146 -0.0962413 125.72564667 -0.09482635 126.82188416 -0.09336853 C130.23545083 -0.08775064 133.648953 -0.07519511 137.0625 -0.0625 C139.37044176 -0.05748731 141.67838455 -0.052924 143.98632812 -0.04882812 C149.65757426 -0.0377754 155.32878253 -0.02101987 161 0 C152.5542233 18.11876171 152.5542233 18.11876171 148.625 25.375 C143.73960358 34.53561356 138.99030965 43.76381429 134.25 53 C132.68391661 56.04964506 131.11743877 59.09908735 129.55078125 62.1484375 C129.16526596 62.89883301 128.77975067 63.64922852 128.3825531 64.42236328 C124.74701501 71.49655996 121.09699695 78.56317097 117.4375 85.625 C116.91510742 86.63433594 116.39271484 87.64367187 115.85449219 88.68359375 C115.3443457 89.66714844 114.83419922 90.65070313 114.30859375 91.6640625 C113.7978833 92.68089111 113.28717285 93.69771973 112.76098633 94.74536133 C111.46518747 97.14024482 110.16086287 99.27647138 108.63549805 101.51049805 C99.8723713 114.9797684 100.76379643 128.95343909 100.9375 144.5625 C100.93944939 147.23121555 100.92728983 149.89964 100.91601562 152.56835938 C100.88986458 159.04778411 100.94668328 165.51881982 101 172 C87.14 172 73.28 172 59 172 C59.05542969 168.14054688 59.11085938 164.28109375 59.16796875 160.3046875 C59.18423576 156.48814248 59.18147597 152.67203955 59.17700195 148.85546875 C59.1838971 146.24108376 59.20998896 143.62666525 59.25708008 141.01269531 C59.55814638 123.38171147 57.68132043 110.43029917 48.37901306 95.27989197 C46.22309594 91.71556161 44.34152575 88.01550367 42.4375 84.3125 C41.61890792 82.76670547 40.79997121 81.22109333 39.98046875 79.67578125 C36.01030918 72.14829153 32.13703154 64.57062494 28.25 57 C26.68899654 53.96083759 25.12776643 50.92179166 23.56640625 47.8828125 C23.18173187 47.13409378 22.7970575 46.38537506 22.40072632 45.6139679 C18.67386016 38.36200608 14.93569088 31.11596151 11.1875 23.875 C10.6315918 22.79863281 10.07568359 21.72226562 9.50292969 20.61328125 C6.74126079 15.28392389 3.92209052 10.01746813 0.8762207 4.84423828 C0 3 0 3 0 0 Z " fill="#FFFFFF" transform="translate(2566,2)"/>
<path d="M0 0 C36.96 0 73.92 0 112 0 C112 11.22 112 22.44 112 34 C88.9 34 65.8 34 42 34 C42 45.55 42 57.1 42 69 C59.16 69 76.32 69 94 69 C94 80.22 94 91.44 94 103 C76.84 103 59.68 103 42 103 C42 125.77 42 148.54 42 172 C28.14 172 14.28 172 0 172 C0 115.24 0 58.48 0 0 Z " fill="#FFFFFF" transform="translate(1729,2)"/>
<path d="M0 0 C43.89 0 87.78 0 133 0 C133 11.22 133 22.44 133 34 C118.15 34 103.3 34 88 34 C88 79.54 88 125.08 88 172 C73.81 172 59.62 172 45 172 C45 126.46 45 80.92 45 34 C30.15 34 15.3 34 0 34 C0 22.78 0 11.56 0 0 Z " fill="#FFFFFF" transform="translate(2353,2)"/>
<path d="M0 0 C14.19 0 28.38 0 43 0 C43 45.87 43 91.74 43 139 C60.82 139 78.64 139 97 139 C97 149.89 97 160.78 97 172 C64.99 172 32.98 172 0 172 C0 115.24 0 58.48 0 0 Z " fill="#FFFFFF" transform="translate(2815,2)"/>
<path d="M0 0 C13.86 0 27.72 0 42 0 C42 45.87 42 91.74 42 139 C60.15 139 78.3 139 97 139 C97 149.89 97 160.78 97 172 C64.99 172 32.98 172 0 172 C0 115.24 0 58.48 0 0 Z " fill="#FFFFFF" transform="translate(1395,2)"/>
<path d="M0 0 C4.29 0 8.58 0 13 0 C18.36320783 11.4167826 23.61293423 22.88284431 28.8125 34.375 C29.22218018 35.27984131 29.63186035 36.18468262 30.05395508 37.11694336 C36.50397882 51.37155791 42.83489914 65.67514013 49.09762573 80.01287842 C56.93870778 97.95693076 64.99627669 115.80095636 73.10946655 133.62341309 C75.43505896 138.73630546 77.72605643 143.86393477 80 149 C82.86472347 144.7029148 84.84446055 140.06086221 87 135.375 C87.78298462 133.67633789 87.78298462 133.67633789 88.58178711 131.94335938 C93.76524583 120.65024487 98.73354072 109.26337121 103.70843506 97.87728882 C110.34820562 82.68615017 117.13682601 67.56702832 123.99389648 52.47290039 C127.93528772 43.79327932 131.85570148 35.10544657 135.71875 26.390625 C136.28183365 25.12041252 136.28183365 25.12041252 136.85629272 23.82453918 C138.63824037 19.8017195 140.41618305 15.77716921 142.18994141 11.75073242 C142.81671556 10.33251237 143.443505 8.91429907 144.0703125 7.49609375 C144.3547522 6.84727234 144.63919189 6.19845093 144.93225098 5.52996826 C146.88704778 1.11295222 146.88704778 1.11295222 148 0 C151.96 0 155.92 0 160 0 C160 55.44 160 110.88 160 168 C156.04 168 152.08 168 148 168 C147.67 122.46 147.34 76.92 147 30 C133.01532037 61.46176483 133.01532037 61.46176483 119.04296875 92.92895508 C112.12036643 108.52548831 105.1764198 124.11236404 98.18365479 139.67758179 C97.40493039 141.41108983 96.62671786 143.14482792 95.84906006 144.8788147 C94.77615924 147.27027779 93.70095054 149.66068899 92.625 152.05078125 C92.31547394 152.74143677 92.00594788 153.43209229 91.68704224 154.14367676 C89.57499935 158.82498302 87.31964016 163.41788042 85 168 C81.7 168 78.4 168 75 168 C66.96017188 150.12101769 58.98213291 132.21515798 51.0296936 114.29714966 C44.18817524 98.88597294 37.29660177 83.49802152 30.35083008 68.13354492 C24.47891926 55.12549001 18.74890621 42.06569593 13 29 C12.67 74.87 12.34 120.74 12 168 C8.04 168 4.08 168 0 168 C0 112.56 0 57.12 0 0 Z " fill="#FFFFFF" transform="translate(793,6)"/>
<path d="M0 0 C14.19 0 28.38 0 43 0 C43 56.76 43 113.52 43 172 C28.81 172 14.62 172 0 172 C0 115.24 0 58.48 0 0 Z " fill="#FFFFFF" transform="translate(1584,2)"/>
<path d="M0 0 C3.96 0 7.92 0 12 0 C12.33 26.07 12.66 52.14 13 79 C15.31 76.36 17.62 73.72 20 71 C21.7289396 69.20859871 23.47736055 67.4356705 25.25 65.6875 C25.94270996 65.00046997 25.94270996 65.00046997 26.64941406 64.29956055 C28.58139565 62.38358083 30.51944784 60.47378835 32.45703125 58.56347656 C39.15581399 51.98020429 39.15581399 51.98020429 45.46875 45.03125 C50.62067744 39.00840149 56.39182133 33.55310573 62.02978516 27.99072266 C68.81278121 21.29047262 75.44596742 14.57032954 81.30859375 7.03125 C84.8259596 2.84913427 87.60943405 -0.13588726 93.19921875 -0.6328125 C97.16867558 -0.7274799 101.05669724 -0.44031917 105 0 C101.04247722 4.76932233 96.88878474 9.1797614 92.44140625 13.49609375 C90.55112919 15.43476191 88.8086304 17.38257159 87.05859375 19.44140625 C80.99582227 26.42976682 74.25382368 32.79971898 67.67919922 39.30029297 C59.0488135 47.83393275 59.0488135 47.83393275 50.92724609 56.84570312 C46.05427614 62.29276253 40.74737618 67.35237452 35.5625 72.5 C34.3415631 73.71591114 33.12085808 74.93205516 31.90039062 76.1484375 C28.93625987 79.10164966 25.96901042 82.05169398 23 85 C24.34155631 87.98932164 25.81752877 90.05967051 28.14526367 92.35644531 C28.78320358 92.99100647 29.42114349 93.62556763 30.07841492 94.27935791 C30.76796768 94.95545105 31.45752045 95.63154419 32.16796875 96.328125 C32.88100662 97.0359613 33.59404449 97.74379761 34.32868958 98.4730835 C36.61026194 100.73685772 38.89838342 102.99385671 41.1875 105.25 C43.45793875 107.49266506 45.72684929 109.73682159 47.99275208 111.98406982 C49.40129031 113.38052401 50.81249126 114.77429967 52.22685242 116.16485596 C55.40961134 119.31581695 58.48025142 122.50261225 61.39990234 125.89990234 C65.50719057 130.66150615 69.95882894 135.04717573 74.43359375 139.4609375 C76.23385258 141.2485684 78.03397904 143.0363326 79.83398438 144.82421875 C82.65234679 147.61761804 85.47212388 150.40956749 88.29467773 153.19873047 C91.0327915 155.9068278 93.76480702 158.62095739 96.49609375 161.3359375 C97.77558144 162.59523575 97.77558144 162.59523575 99.08091736 163.87997437 C99.85915359 164.65483185 100.63738983 165.42968933 101.43920898 166.22802734 C102.12869125 166.91005219 102.81817352 167.59207703 103.52854919 168.29476929 C105 170 105 170 105 172 C92.0778991 173.77104936 92.0778991 173.77104936 87.17724609 170.95117188 C83.87206861 168.28842554 81.137263 165.14236866 78.48979187 161.83843994 C73.46203624 155.63406539 68.02207064 149.8885787 62.34375 144.28125 C61.63778687 143.57907349 60.93182373 142.87689697 60.20446777 142.15344238 C57.97208642 139.93315397 55.73647889 137.71616045 53.5 135.5 C50.54909622 132.57590521 47.60166797 129.64836943 44.65625 126.71875 C43.99250366 126.063302 43.32875732 125.407854 42.64489746 124.73254395 C41.68855408 123.7811554 41.68855408 123.7811554 40.71289062 122.81054688 C40.16330688 122.26619995 39.61372314 121.72185303 39.04748535 121.16101074 C35.9283333 117.86891339 32.98637572 114.41300082 30 111 C24.39 105.39 18.78 99.78 13 94 C12.67 119.74 12.34 145.48 12 172 C8.04 172 4.08 172 0 172 C0 115.24 0 58.48 0 0 Z " fill="#FFFFFF" transform="translate(0,2)"/>
<path d="M0 0 C77.33248391 0 77.33248391 0 92.4375 13.5625 C102.43672628 24.70142304 105.56300182 38.41170064 104.875 53.0625 C103.91803161 66.51135227 99.43759494 75.95772146 89.8125 85.1875 C74.09739611 98.4788814 52.84308274 97.42901006 33.4375 97.1875 C22.8259375 97.0946875 22.8259375 97.0946875 12 97 C12 121.75 12 146.5 12 172 C8.04 172 4.08 172 0 172 C0 115.24 0 58.48 0 0 Z M12 11 C12 35.75 12 60.5 12 86 C19.321875 86.061875 26.64375 86.12375 34.1875 86.1875 C36.47067139 86.21481201 38.75384277 86.24212402 41.10620117 86.27026367 C56.22861456 86.37578702 69.38018967 85.60183062 82.1875 76.8125 C89.89674964 69.10325036 92.41712576 59.43369264 93.0234375 48.80078125 C92.96187453 38.81731952 90.82616053 29.5072287 84 22 C74.03390389 12.46255318 62.14204188 10.8350541 48.9140625 10.90234375 C47.5077356 10.90385437 47.5077356 10.90385437 46.07299805 10.90539551 C42.59031949 10.91060446 39.10765844 10.92456565 35.625 10.9375 C27.82875 10.958125 20.0325 10.97875 12 11 Z " fill="#FFFFFF" transform="translate(587,2)"/>
<path d="M0 0 C29.04 0 58.08 0 88 0 C88 3.3 88 6.6 88 10 C62.92 10 37.84 10 12 10 C12 33.1 12 56.2 12 80 C34.44 80 56.88 80 80 80 C80 83.63 80 87.26 80 91 C57.56 91 35.12 91 12 91 C12 114.43 12 137.86 12 162 C37.08 162 62.16 162 88 162 C88 165.3 88 168.6 88 172 C58.96 172 29.92 172 0 172 C0 115.24 0 58.48 0 0 Z " fill="#FFFFFF" transform="translate(202,2)"/>
<path d="M0 0 C28.71 0 57.42 0 87 0 C87 3.3 87 6.6 87 10 C62.25 10 37.5 10 12 10 C12 33.1 12 56.2 12 80 C34.44 80 56.88 80 80 80 C80 83.63 80 87.26 80 91 C57.56 91 35.12 91 12 91 C12 114.43 12 137.86 12 162 C36.75 162 61.5 162 87 162 C87 165.3 87 168.6 87 172 C58.29 172 29.58 172 0 172 C0 115.24 0 58.48 0 0 Z " fill="#FFFFFF" transform="translate(1066,2)"/>
<path d="M0 0 C28.71 0 57.42 0 87 0 C87 3.3 87 6.6 87 10 C62.25 10 37.5 10 12 10 C12 33.1 12 56.2 12 80 C34.44 80 56.88 80 80 80 C80 83.63 80 87.26 80 91 C57.56 91 35.12 91 12 91 C12 114.43 12 137.86 12 162 C36.75 162 61.5 162 87 162 C87 165.3 87 168.6 87 172 C58.29 172 29.58 172 0 172 C0 115.24 0 58.48 0 0 Z " fill="#FFFFFF" transform="translate(395,2)"/>
</svg>
